<svg id="visual" viewBox="0 0 900 600" width="900" height="600" xmlns="http://www.w3.org/2000/svg" xmlns:xlink="http://www.w3.org/1999/xlink" version="1.1"><rect x="0" y="0" width="900" height="600" fill="#ffffff"></rect><defs><linearGradient id="grad1_0" x1="33.3%" y1="0%" x2="100%" y2="100%"><stop offset="20%" stop-color="#1666ba" stop-opacity="1"></stop><stop offset="80%" stop-color="#1666ba" stop-opacity="1"></stop></linearGradient></defs><defs><linearGradient id="grad1_1" x1="33.3%" y1="0%" x2="100%" y2="100%"><stop offset="20%" stop-color="#1666ba" stop-opacity="1"></stop><stop offset="80%" stop-color="#9eafdd" stop-opacity="1"></stop></linearGradient></defs><defs><linearGradient id="grad1_2" x1="33.3%" y1="0%" x2="100%" y2="100%"><stop offset="20%" stop-color="#ffffff" stop-opacity="1"></stop><stop offset="80%" stop-color="#9eafdd" stop-opacity="1"></stop></linearGradient></defs><defs><linearGradient id="grad2_0" x1="0%" y1="0%" x2="66.7%" y2="100%"><stop offset="20%" stop-color="#1666ba" stop-opacity="1"></stop><stop offset="80%" stop-color="#1666ba" stop-opacity="1"></stop></linearGradient></defs><defs><linearGradient id="grad2_1" x1="0%" y1="0%" x2="66.7%" y2="100%"><stop offset="20%" stop-color="#9eafdd" stop-opacity="1"></stop><stop offset="80%" stop-color="#1666ba" stop-opacity="1"></stop></linearGradient></defs><defs><linearGradient id="grad2_2" x1="0%" y1="0%" x2="66.7%" y2="100%"><stop offset="20%" stop-color="#9eafdd" stop-opacity="1"></stop><stop offset="80%" stop-color="#ffffff" stop-opacity="1"></stop></linearGradient></defs><g transform="translate(900, 0)"><path d="M0 317C-66.1 325.4 -132.3 333.8 -175.8 304.4C-219.3 275.1 -240.1 208 -261.5 151C-283 94 -305 47 -327 0L0 0Z" fill="#cfd6ee"></path><path d="M0 211.3C-44.1 216.9 -88.2 222.5 -117.2 203C-146.2 183.4 -160.1 138.7 -174.4 100.7C-188.6 62.6 -203.3 31.3 -218 0L0 0Z" fill="#6889cc"></path><path d="M0 105.7C-22 108.5 -44.1 111.3 -58.6 101.5C-73.1 91.7 -80 69.3 -87.2 50.3C-94.3 31.3 -101.7 15.7 -109 0L0 0Z" fill="#1666ba"></path></g><g transform="translate(0, 600)"><path d="M0 -319C66.5 -324.7 133 -330.4 173 -299.6C213 -268.8 226.7 -201.5 252 -145.5C277.4 -89.5 314.5 -44.7 351.5 0L0 0Z" fill="#cfd6ee"></path><path d="M0 -212.7C44.3 -216.5 88.6 -220.3 115.3 -199.8C142 -179.2 151.1 -134.4 168 -97C184.9 -59.6 209.6 -29.8 234.4 0L0 0Z" fill="#6889cc"></path><path d="M0 -106.3C22.2 -108.2 44.3 -110.1 57.7 -99.9C71 -89.6 75.6 -67.2 84 -48.5C92.5 -29.8 104.8 -14.9 117.2 0L0 0Z" fill="#1666ba"></path></g></svg>